<svg width="469" height="525" viewBox="0 0 469 525" fill="none" xmlns="http://www.w3.org/2000/svg">
<g clip-path="url(#clip0_1703_60)">
<path d="M18.4523 382.452C43.0553 357.849 82.9447 357.849 107.548 382.452C132.151 407.055 132.151 446.945 107.548 471.548C82.9447 496.151 66.4043 523.405 66.4043 523.405C64.0612 525.748 60.2622 525.748 57.919 523.405C57.919 523.405 43.0553 496.151 18.4523 471.548C-6.15076 446.945 -6.15076 407.055 18.4523 382.452Z" fill="black"/>
<circle cx="63" cy="427" r="55" fill="white"/>
<path d="M53.09 425.8C55.9367 426.407 58.2233 427.83 59.95 430.07C61.6767 432.263 62.54 434.783 62.54 437.63C62.54 441.737 61.0933 445.003 58.2 447.43C55.3533 449.81 51.3633 451 46.23 451H23.34V401.86H45.46C50.4533 401.86 54.35 403.003 57.15 405.29C59.9967 407.577 61.42 410.68 61.42 414.6C61.42 417.493 60.65 419.897 59.11 421.81C57.6167 423.723 55.61 425.053 53.09 425.8ZM35.31 421.74H43.15C45.11 421.74 46.6033 421.32 47.63 420.48C48.7033 419.593 49.24 418.31 49.24 416.63C49.24 414.95 48.7033 413.667 47.63 412.78C46.6033 411.893 45.11 411.45 43.15 411.45H35.31V421.74ZM44.13 441.34C46.1367 441.34 47.6767 440.897 48.75 440.01C49.87 439.077 50.43 437.747 50.43 436.02C50.43 434.293 49.8467 432.94 48.68 431.96C47.56 430.98 45.9967 430.49 43.99 430.49H35.31V441.34H44.13ZM91.0426 451L80.8226 432.45H77.9526V451H65.9826V401.86H86.0726C89.9459 401.86 93.2359 402.537 95.9426 403.89C98.6959 405.243 100.749 407.11 102.103 409.49C103.456 411.823 104.133 414.437 104.133 417.33C104.133 420.597 103.199 423.513 101.333 426.08C99.5126 428.647 96.8059 430.467 93.2126 431.54L104.553 451H91.0426ZM77.9526 423.98H85.3726C87.5659 423.98 89.1992 423.443 90.2726 422.37C91.3926 421.297 91.9526 419.78 91.9526 417.82C91.9526 415.953 91.3926 414.483 90.2726 413.41C89.1992 412.337 87.5659 411.8 85.3726 411.8H77.9526V423.98Z" fill="black"/>
</g>
<defs>
<clipPath id="clip0_1703_60">
<rect width="469" height="525" fill="white"/>
</clipPath>
</defs>
</svg>
