<svg width="126" height="162" viewBox="0 0 126 162" fill="none" xmlns="http://www.w3.org/2000/svg">
<path d="M18.4523 18.4523C43.0553 -6.15076 82.9447 -6.15076 107.548 18.4523C132.151 43.0553 132.151 82.9447 107.548 107.548C82.9447 132.151 66.4043 159.405 66.4043 159.405C64.0611 161.748 60.2622 161.748 57.919 159.405C57.919 159.405 43.0553 132.151 18.4523 107.548C-6.15076 82.9447 -6.15076 43.0553 18.4523 18.4523Z" fill="black"/>
<circle cx="63" cy="63" r="55" fill="white"/>
<path d="M53.09 61.8C55.9367 62.4067 58.2233 63.83 59.95 66.07C61.6767 68.2633 62.54 70.7833 62.54 73.63C62.54 77.7367 61.0933 81.0033 58.2 83.43C55.3533 85.81 51.3633 87 46.23 87H23.34V37.86H45.46C50.4533 37.86 54.35 39.0033 57.15 41.29C59.9967 43.5767 61.42 46.68 61.42 50.6C61.42 53.4933 60.65 55.8967 59.11 57.81C57.6167 59.7233 55.61 61.0533 53.09 61.8ZM35.31 57.74H43.15C45.11 57.74 46.6033 57.32 47.63 56.48C48.7033 55.5933 49.24 54.31 49.24 52.63C49.24 50.95 48.7033 49.6667 47.63 48.78C46.6033 47.8933 45.11 47.45 43.15 47.45H35.31V57.74ZM44.13 77.34C46.1367 77.34 47.6767 76.8967 48.75 76.01C49.87 75.0767 50.43 73.7467 50.43 72.02C50.43 70.2933 49.8467 68.94 48.68 67.96C47.56 66.98 45.9967 66.49 43.99 66.49H35.31V77.34H44.13ZM91.0426 87L80.8226 68.45H77.9526V87H65.9826V37.86H86.0726C89.9459 37.86 93.2359 38.5367 95.9426 39.89C98.6959 41.2433 100.749 43.11 102.103 45.49C103.456 47.8233 104.133 50.4367 104.133 53.33C104.133 56.5967 103.199 59.5133 101.333 62.08C99.5126 64.6467 96.8059 66.4667 93.2126 67.54L104.553 87H91.0426ZM77.9526 59.98H85.3726C87.5659 59.98 89.1992 59.4433 90.2726 58.37C91.3926 57.2967 91.9526 55.78 91.9526 53.82C91.9526 51.9533 91.3926 50.4833 90.2726 49.41C89.1992 48.3367 87.5659 47.8 85.3726 47.8H77.9526V59.98Z" fill="black"/>
</svg>
