<svg width="469" height="525" viewBox="0 0 469 525" fill="none" xmlns="http://www.w3.org/2000/svg">
<g clip-path="url(#clip0_1703_52)">
<path d="M18.4523 382.452C43.0553 357.849 82.9447 357.849 107.548 382.452C132.151 407.055 132.151 446.945 107.548 471.548C82.9447 496.151 66.4043 523.405 66.4043 523.405C64.0612 525.748 60.2622 525.748 57.919 523.405C57.919 523.405 43.0553 496.151 18.4523 471.548C-6.15076 446.945 -6.15076 407.055 18.4523 382.452Z" fill="#8D8D8D"/>
<circle cx="63" cy="427" r="55" fill="white"/>
<path d="M22 460H37.619V417.073H22V460ZM96.1905 440.488H68.8571L60.6962 437.639L61.9848 433.971L68.8571 436.585H79.8686C82.4067 436.585 84.4762 434.517 84.4762 431.98C84.4762 430.068 83.2657 428.351 81.4695 427.649L53.121 417.073H45.4286V452.273L72.7619 460L104 448.293C103.961 444 100.525 440.488 96.1905 440.488ZM72.7619 380L45.4286 399.512V409.268H53.2381L85.0229 421.99C89.3962 423.746 92.2857 427.961 92.2857 432.683H100.095V399.512L72.7619 380ZM70.8095 413.171H66.9048V409.268H70.8095V413.171ZM70.8095 405.366H66.9048V401.463H70.8095V405.366ZM78.619 413.171H74.7143V409.268H78.619V413.171ZM78.619 405.366H74.7143V401.463H78.619V405.366Z" fill="black"/>
</g>
<defs>
<clipPath id="clip0_1703_52">
<rect width="469" height="525" fill="white"/>
</clipPath>
</defs>
</svg>
