<svg width="126" height="162" viewBox="0 0 126 162" fill="none" xmlns="http://www.w3.org/2000/svg">
<path d="M18.4523 18.4523C43.0553 -6.15076 82.9447 -6.15076 107.548 18.4523C132.151 43.0553 132.151 82.9447 107.548 107.548C82.9447 132.151 66.4043 159.405 66.4043 159.405C64.0611 161.748 60.2622 161.748 57.919 159.405C57.919 159.405 43.0553 132.151 18.4523 107.548C-6.15076 82.9447 -6.15076 43.0553 18.4523 18.4523Z" fill="#8D8D8D"/>
<circle cx="63" cy="63" r="55" fill="white"/>
<path d="M22 96H37.619V53.0732H22V96ZM96.1905 76.4878H68.8571L60.6962 73.639L61.9848 69.9707L68.8571 72.5854H79.8686C82.4067 72.5854 84.4762 70.5171 84.4762 67.9805C84.4762 66.0683 83.2657 64.3512 81.4695 63.6488L53.121 53.0732H45.4286V88.2732L72.7619 96L104 84.2927C103.961 80 100.525 76.4878 96.1905 76.4878ZM72.7619 16L45.4286 35.5122V45.2683H53.2381L85.0229 57.9902C89.3962 59.7463 92.2857 63.961 92.2857 68.6829H100.095V35.5122L72.7619 16ZM70.8095 49.1707H66.9048V45.2683H70.8095V49.1707ZM70.8095 41.3659H66.9048V37.4634H70.8095V41.3659ZM78.619 49.1707H74.7143V45.2683H78.619V49.1707ZM78.619 41.3659H74.7143V37.4634H78.619V41.3659Z" fill="black"/>
</svg>
