<svg width="469" height="525" viewBox="0 0 469 525" fill="none" xmlns="http://www.w3.org/2000/svg">
<g clip-path="url(#clip0_1703_44)">
<path d="M18.4523 382.452C43.0553 357.849 82.9447 357.849 107.548 382.452C132.151 407.055 132.151 446.945 107.548 471.548C82.9447 496.151 66.4043 523.405 66.4043 523.405C64.0612 525.748 60.2622 525.748 57.919 523.405C57.919 523.405 43.0553 496.151 18.4523 471.548C-6.15076 446.945 -6.15076 407.055 18.4523 382.452Z" fill="#FF7F00"/>
<circle cx="63" cy="427" r="55" fill="white"/>
<path d="M46.445 412.41L35.24 444H25.61L14.405 412.41H22.595L30.425 436.26L38.3 412.41H46.445ZM55.1061 412.41V444H47.4111V412.41H55.1061ZM70.2676 412.41C73.5976 412.41 76.5076 413.07 78.9976 414.39C81.4876 415.71 83.4076 417.57 84.7576 419.97C86.1376 422.34 86.8276 425.085 86.8276 428.205C86.8276 431.295 86.1376 434.04 84.7576 436.44C83.4076 438.84 81.4726 440.7 78.9526 442.02C76.4626 443.34 73.5676 444 70.2676 444H58.4326V412.41H70.2676ZM69.7726 437.34C72.6826 437.34 74.9476 436.545 76.5676 434.955C78.1876 433.365 78.9976 431.115 78.9976 428.205C78.9976 425.295 78.1876 423.03 76.5676 421.41C74.9476 419.79 72.6826 418.98 69.7726 418.98H66.1276V437.34H69.7726ZM96.5729 418.575V424.965H106.878V430.905H96.5729V437.835H108.228V444H88.8779V412.41H108.228V418.575H96.5729Z" fill="black"/>
</g>
<defs>
<clipPath id="clip0_1703_44">
<rect width="469" height="525" fill="white"/>
</clipPath>
</defs>
</svg>
