<svg width="126" height="162" viewBox="0 0 126 162" fill="none" xmlns="http://www.w3.org/2000/svg">
<path d="M18.4523 18.4523C43.0553 -6.15076 82.9447 -6.15076 107.548 18.4523C132.151 43.0553 132.151 82.9447 107.548 107.548C82.9447 132.151 66.4043 159.405 66.4043 159.405C64.0611 161.748 60.2622 161.748 57.919 159.405C57.919 159.405 43.0553 132.151 18.4523 107.548C-6.15076 82.9447 -6.15076 43.0553 18.4523 18.4523Z" fill="#FF7F00"/>
<circle cx="63" cy="63" r="55" fill="white"/>
<path d="M46.445 48.41L35.24 80H25.61L14.405 48.41H22.595L30.425 72.26L38.3 48.41H46.445ZM55.1061 48.41V80H47.4111V48.41H55.1061ZM70.2676 48.41C73.5976 48.41 76.5076 49.07 78.9976 50.39C81.4876 51.71 83.4076 53.57 84.7576 55.97C86.1376 58.34 86.8276 61.085 86.8276 64.205C86.8276 67.295 86.1376 70.04 84.7576 72.44C83.4076 74.84 81.4726 76.7 78.9526 78.02C76.4626 79.34 73.5676 80 70.2676 80H58.4326V48.41H70.2676ZM69.7726 73.34C72.6826 73.34 74.9476 72.545 76.5676 70.955C78.1876 69.365 78.9976 67.115 78.9976 64.205C78.9976 61.295 78.1876 59.03 76.5676 57.41C74.9476 55.79 72.6826 54.98 69.7726 54.98H66.1276V73.34H69.7726ZM96.5729 54.575V60.965H106.878V66.905H96.5729V73.835H108.228V80H88.8779V48.41H108.228V54.575H96.5729Z" fill="black"/>
</svg>
